<svg width="108" height="33" viewBox="0 0 108 33" fill="none" xmlns="http://www.w3.org/2000/svg">
<path fill-rule="evenodd" clip-rule="evenodd" d="M4.84759 5.2666L4.00048 9.43741C4.95829 7.97769 6.08506 6.58468 7.37119 5.2666H4.84759ZM18.3697 15.218C17.4741 16.1216 16.9809 17.1963 16.9809 18.2465C16.9809 18.8532 17.1497 19.4017 17.4714 19.8556H18.3103L19.3965 14.4193C19.0318 14.6319 18.6839 14.9003 18.3697 15.218ZM4.54602 20.719C4.54602 18.4892 5.05067 16.2238 6.04432 13.9885C7.07722 11.6605 8.59235 9.48106 10.5459 7.51012C11.3633 6.68483 12.2293 5.9365 13.1352 5.2666H17.1281C16.9984 5.32659 16.87 5.38791 16.741 5.45202C15.0125 6.30379 13.4249 7.45425 12.0233 8.86842C10.5527 10.3534 9.3739 11.9795 8.52077 13.7064C7.69457 15.3775 7.19413 17.0934 7.03327 18.8081C6.70764 22.2804 7.81551 25.491 10.1501 27.8457C10.6351 28.3355 11.1695 28.769 11.7491 29.1426H7.61828C6.6915 28.0847 5.96194 26.8908 5.4458 25.5822C4.84867 24.0694 4.54602 22.4337 4.54602 20.719ZM11.3277 10.8154H13.3475C13.4536 10.7036 13.5617 10.5905 13.6725 10.4787C15.8152 8.31837 18.478 6.92276 21.2113 6.52133L21.4663 5.2666H19.2636C16.8974 6.01961 14.5696 7.41738 12.5781 9.42658C12.1323 9.87628 11.7162 10.3397 11.3277 10.8154ZM26.0899 16.1774C26.0899 17.7205 25.3172 19.3486 23.914 20.7647C23.1261 21.56 22.22 22.1379 21.2924 22.4869L21.5459 21.239C22.2077 20.9514 22.8356 20.5275 23.3646 19.9939C24.2358 19.1148 24.7634 18.0203 24.8511 16.9136C24.9392 15.7986 24.5825 14.775 23.8438 14.0294C23.6306 13.8141 23.3872 13.6327 23.1204 13.4855L23.3908 12.1511C23.9245 12.3529 24.3998 12.6589 24.8018 13.0637C25.6444 13.9149 26.0899 14.9903 26.0899 16.1774ZM26.8738 16.1773C26.8738 17.9302 26.02 19.7587 24.4684 21.3234C23.4935 22.3069 22.3306 23.0156 21.1105 23.385L20.8127 24.8516C22.3838 24.4304 23.934 23.509 25.2474 22.1828C28.6573 18.7432 29.1736 14.0756 26.4469 11.3237C25.7366 10.6054 24.8522 10.1092 23.8572 9.85583L23.5484 11.3741C24.2361 11.614 24.8514 11.9971 25.3555 12.5055C26.3493 13.5073 26.8738 14.7762 26.8738 16.1773ZM23.2903 14.5891C23.8632 15.1676 24.1401 15.9705 24.0704 16.8503C23.9975 17.7703 23.5506 18.6882 22.8106 19.4346C22.4897 19.7589 22.1286 20.035 21.7453 20.2571L22.954 14.3076C23.0739 14.3907 23.1864 14.4847 23.2903 14.5891ZM1.36456 27.3882C1.11729 26.7652 0.910584 26.1286 0.744378 25.4772L0 29.1425H2.18868C1.87856 28.5773 1.6036 27.9919 1.36456 27.3882ZM5.32913 13.6642C4.29026 16.0023 3.76258 18.3774 3.76258 20.7197C3.76258 22.5345 4.08419 24.2696 4.71774 25.8738C5.18452 27.0558 5.81349 28.1502 6.59573 29.1426H3.0926C2.70751 28.4881 2.37309 27.8054 2.09204 27.0951C1.63342 25.9393 1.32004 24.7256 1.15245 23.4668L3.52686 11.7681C4.6881 9.59546 6.2161 7.54826 8.08323 5.66455C8.21691 5.53032 8.35066 5.39811 8.48584 5.2666H11.8498C11.2082 5.78859 10.5879 6.3501 9.99218 6.9519C7.97109 8.99163 6.40184 11.2495 5.32913 13.6642ZM10.3611 19.5182C10.3611 19.6312 10.3638 19.7438 10.3678 19.8561H12.141C12.112 19.585 12.0972 19.3097 12.0972 19.0302C12.0972 17.4028 12.5869 15.7385 13.4846 14.2242H11.808C10.8623 15.9279 10.3611 17.7339 10.3611 19.5182ZM16.8513 14.2242H18.2962C18.1294 14.3585 17.9694 14.5037 17.8153 14.6589C16.7724 15.7119 16.1981 16.9857 16.1981 18.2464C16.1981 18.8217 16.3244 19.3696 16.5622 19.8561H15.168C15.0599 19.4596 15.0045 19.0404 15.0045 18.6002C15.0045 17.1029 15.674 15.5259 16.8513 14.2242ZM12.8799 19.0302C12.8799 19.3116 12.8969 19.587 12.9279 19.8561H14.3626C14.2694 19.4528 14.2208 19.0316 14.2208 18.6002C14.2208 17.7074 14.4188 16.8058 14.8085 15.9211C15.0692 15.3262 15.4104 14.7599 15.8245 14.2242H14.4093C13.4231 15.7221 12.8799 17.3994 12.8799 19.0302ZM20.6394 25.7069C22.473 25.3 24.2874 24.2696 25.8009 22.7424C29.5271 18.9839 30.0433 13.8344 27.0023 10.7649C26.1781 9.93482 25.1594 9.36647 24.015 9.08026L24.3698 7.33079C25.9117 7.60407 27.3163 8.28905 28.4255 9.40802C29.9121 10.9081 30.7127 12.7535 30.7863 14.8146C30.7898 14.9179 30.7916 15.023 30.7916 15.1272C30.7912 15.5696 30.7593 16.0214 30.6931 16.4807C30.3267 19.0174 28.9759 21.5743 26.8872 23.6808C25.0453 25.5392 22.69 26.8151 20.3193 27.2859L20.6394 25.7069ZM28.9795 8.84859C30.0351 9.91435 30.7808 11.148 31.1946 12.5165C31.2064 12.5559 31.2182 12.5955 31.2296 12.635L31.5989 10.8154H32.6441C32.1496 9.54922 31.3997 8.40427 30.4111 7.40515C29.453 6.43879 28.3206 5.72866 27.0778 5.2666H24.7895L24.5279 6.55465C24.899 6.62066 25.2621 6.70928 25.6188 6.81976C26.9165 7.22658 28.0481 7.90883 28.9795 8.84859ZM36.147 10.8154H33.4808C32.9506 9.33111 32.105 7.99809 30.9648 6.84636C30.3512 6.22752 29.665 5.70003 28.9127 5.2666H33.1856C34.6395 6.84497 35.6406 8.73412 36.147 10.8154ZM20.7077 9.00665L21.0434 7.35068C18.7534 7.75135 16.4135 8.9229 14.4517 10.8155H16.5891C17.8557 9.89206 19.2661 9.2698 20.7077 9.00665ZM18.0408 10.8156C18.8398 10.3644 19.6822 10.0374 20.5372 9.84657L20.3414 10.8156H18.0408ZM7.8129 18.8823C7.51025 22.1154 8.53706 25.1012 10.704 27.288C11.4755 28.0656 12.3835 28.6878 13.4074 29.1426H16.6047L16.8067 28.1637C14.9652 27.8774 13.3439 27.0626 12.0565 25.7642C11.3945 25.0971 10.8554 24.3242 10.4515 23.4778H8.59043L9.30844 19.8555H9.58409C9.58007 19.7431 9.57724 19.6313 9.57724 19.5175C9.57724 17.7327 10.0407 15.9321 10.9189 14.2243H10.4595L11.085 11.1194C9.20854 13.5224 8.06287 16.2171 7.8129 18.8823ZM17.774 23.4778L17.7719 23.4832L17.4693 24.9497C16.448 24.7114 15.5198 24.2138 14.7308 23.4778H17.7537H17.774ZM17.3094 25.724C16.0596 25.4377 14.9329 24.8067 13.9953 23.8614C13.8724 23.7374 13.7568 23.61 13.6454 23.4778H11.3325C11.6742 24.1115 12.1025 24.6922 12.6106 25.2054C13.7859 26.3912 15.2733 27.132 16.9662 27.3867L17.3094 25.724ZM28.4122 26.5065L27.8758 29.1427H24.5649C25.9489 28.4522 27.2536 27.5642 28.4122 26.5065ZM33.334 15.1274H31.574C31.574 15.6092 31.5405 16.0993 31.4685 16.5954C31.2652 18.0033 30.7792 19.4148 30.0487 20.7594H31.8052C32.57 19.2348 33.0648 17.6496 33.2559 16.0713C33.2947 15.7543 33.3195 15.4402 33.334 15.1274ZM34.2299 5.2666H37.9245C38.2895 5.90388 38.6084 6.56903 38.88 7.26212C39.3231 8.39331 39.6353 9.58324 39.8106 10.8154H36.9536C36.4848 8.76402 35.5656 6.88038 34.2299 5.2666ZM38.8236 5.2666C39.1166 5.81583 39.3787 6.38424 39.6083 6.9711C39.8867 7.6804 40.1151 8.40966 40.2917 9.15798L41.081 5.2666H38.8236ZM34.1174 15.1274H36.4965C36.4848 15.3093 36.4696 15.4893 36.4495 15.6712C36.271 17.3825 35.8106 19.0964 35.0934 20.7594H32.6763C33.3844 19.2627 33.8462 17.7123 34.0342 16.1666C34.0761 15.8178 34.1039 15.4722 34.1174 15.1274ZM37.2291 15.7537C37.0533 17.4371 36.6169 19.1218 35.944 20.76H37.7505L38.8757 15.1274H37.2818C37.2683 15.3359 37.2504 15.5451 37.2291 15.7537ZM19.9417 29.1425L20.149 28.1186C22.7809 27.6703 25.4093 26.2909 27.4418 24.2396C28.1627 23.5124 28.799 22.7334 29.3448 21.9197L28.6916 25.1296C28.6779 25.1438 28.6642 25.1581 28.6505 25.1724C28.5829 25.2429 28.5148 25.3139 28.4452 25.383C26.7778 27.0664 24.7366 28.3551 22.5741 29.1425H19.9417Z" fill="#191919"/>
<path d="M63.9766 10.5284C63.3025 7.49471 61.0778 4.66329 56.1902 4.66329C52.2464 4.66329 48.6735 7.69696 48.6735 11.4048C48.6735 14.8092 50.9993 16.8316 54.2015 17.5732L57.8082 18.4159C60.5385 19.0563 62.089 20.6743 62.089 22.899C62.089 25.4944 59.9654 27.5169 56.2913 27.5169C52.3476 27.5169 50.0218 24.7866 49.7184 21.6855L47.7297 22.3259C48.1341 25.9663 51.033 29.4382 56.2913 29.4382C61.1115 29.4382 64.2126 26.4045 64.2126 22.7304C64.2126 19.3597 61.9205 17.2024 58.2126 16.326L54.5722 15.4834C52.1453 14.9103 50.797 13.4272 50.797 11.2699C50.797 8.47222 53.3925 6.55091 56.2576 6.55091C59.8306 6.55091 61.5834 8.74188 62.089 11.2025L63.9766 10.5284ZM84.5139 29V27.045H72.5815V18.0114H83.4689V16.0564H72.5815V7.05652H84.5139V5.10149H70.4242V29H84.5139ZM107.146 7.05652V5.10149H88.1018V7.05652H96.5287V29H98.6859V7.05652H107.146Z" fill="black"/>
</svg>
