<?xml version="1.0" encoding="UTF-8"?>
<svg width="55px" height="32px" viewBox="0 0 55 32" version="1.1" xmlns="http://www.w3.org/2000/svg" xmlns:xlink="http://www.w3.org/1999/xlink">
    <!-- Generator: Sketch 63 (92445) - https://sketch.com -->
    <title>Logo</title>
    <desc>Created with Sketch.</desc>
    <g id="Symbols" stroke="none" stroke-width="1" fill="none" fill-rule="evenodd">
        <g id="footer_d" transform="translate(-120.000000, -337.000000)" fill="#FFFFFF">
            <g id="Footer">
                <g id="Group-30">
                    <g id="Condensed-Footer" transform="translate(120.000000, 337.000000)">
                        <path d="M22.9316576,0 C22.7579792,0.0804022234 22.5861502,0.162587389 22.4133966,0.248508245 C20.09917,1.39010095 17.9737535,2.93200674 16.0972536,4.82735968 C14.1282822,6.81754819 12.5501291,8.99698332 11.4079374,11.3114976 C10.3018096,13.5511283 9.63181116,15.8509545 9.41643652,18.1490827 C8.98047521,22.8028177 10.4637188,27.1058224 13.5893412,30.2618007 C14.2386596,30.9182632 14.9541372,31.4992478 15.7300575,32 L15.7300575,32 L10.1996705,32 C8.95887049,30.5821361 7.98211875,28.9819026 7.2911041,27.2281662 C6.49164554,25.2005359 6.08645203,23.0083655 6.08645203,20.7101524 C6.08645203,17.7216009 6.76208278,14.6855043 8.09241209,11.6895663 C9.47528205,8.5694167 11.5037715,5.64844722 14.1192872,3.00689033 C15.2135619,1.90078667 16.372987,0.897838978 17.5857933,0 L17.5857933,0 Z M0.996591086,27.0875091 C1.21911126,27.9606415 1.49585338,28.8138221 1.82690152,29.6487486 C2.14693714,30.4579499 2.51505796,31.2424446 2.93025521,31.9999406 L2.93025521,31.9999406 L-2.84217094e-14,31.9999406 Z M15.8646709,6.79216248e-05 C15.0056943,0.699660657 14.1752998,1.45223226 13.3776906,2.25880155 C10.671805,4.99256205 8.57085147,8.01864024 7.13468427,11.2549359 C5.74382814,14.3886698 5.03734551,17.5719017 5.03734551,20.7111543 C5.03734551,23.1435126 5.46792666,25.4689792 6.31614295,27.6190382 C6.94108248,29.2031403 7.78316202,30.6699927 8.83044432,31.999983 L8.83044432,31.999983 L4.1403715,31.999983 C3.62480059,31.1227752 3.17707017,30.207786 2.80079504,29.2557796 C2.18678397,27.7068269 1.76721534,26.080104 1.54284574,24.3929308 L1.54284574,24.3929308 L4.72176534,8.71373317 C6.27646425,5.80184821 8.32218707,3.05806927 10.8219452,0.53342248 C11.0009197,0.353515077 11.1799782,0.176324538 11.3609703,6.79216248e-05 L11.3609703,6.79216248e-05 Z M14.840952,7.84425996 L14.003496,12.0056481 L14.6186,12.0056481 C13.4427822,14.2946069 12.8222981,16.7078622 12.8222981,19.099892 C12.8222981,19.2523761 12.826081,19.402313 12.8314612,19.5529293 L12.8314612,19.5529293 L12.4624157,19.5529293 L11.5011319,24.4077123 L13.9927357,24.4077123 C14.5335261,25.5421732 15.2552245,26.577978 16.1416063,27.4720813 C17.8651919,29.2122333 20.0358354,30.3043281 22.501295,30.6880004 L22.501295,30.6880004 L22.2307737,31.9999915 L17.9502657,31.9999915 C16.579333,31.3904798 15.3636684,30.5564872 14.3308453,29.5143996 C11.4296766,26.5834966 10.054961,22.5818092 10.4601545,18.2485794 C10.7948174,14.6764962 12.3286682,11.0649336 14.840952,7.84425996 L14.840952,7.84425996 Z M38.0389108,28.4667765 L37.3206591,31.9999745 L32.8879934,31.9999745 C34.7409551,31.0744575 36.4876586,29.8843857 38.0389108,28.4667765 L38.0389108,28.4667765 Z M39.2875541,22.3195978 L38.4130255,26.6216686 C38.3044975,26.7347581 38.195297,26.8499702 38.0830702,26.9613616 C35.850723,29.2175482 33.1180206,30.9447102 30.2228205,31.9999575 L30.2228205,31.9999575 L26.6984776,31.9999575 L26.9759764,30.6277709 C30.4995626,30.0269193 34.0186094,28.1780926 36.7397948,25.42888 C37.7049456,24.4542895 38.5567767,23.4102493 39.2875541,22.3195978 L39.2875541,22.3195978 Z M18.2686369,24.4077038 C18.4177683,24.5848943 18.572532,24.7556323 18.7371314,24.9218705 C19.9923065,26.1887786 21.5008537,27.0345726 23.1740843,27.41816 L23.1740843,27.41816 L22.7145848,29.6466685 C20.4481072,29.3053624 18.4567744,28.3124331 16.8831609,26.723152 C16.2029906,26.0353606 15.6294989,25.2570637 15.1720169,24.4077038 L15.1720169,24.4077038 Z M32.6269715,2.76665154 C34.6912727,3.13291891 36.5718077,4.05096457 38.0569007,5.55067404 C40.0471406,7.56115414 41.1189699,10.0344352 41.2175782,12.7968077 C41.2222018,12.9353678 41.2246397,13.0762203 41.2246397,13.2158841 C41.2241353,13.808755 41.1814302,14.4142763 41.0927416,15.029816 C40.6022221,18.4296329 38.7937308,21.8566185 35.9973072,24.6798657 C33.5313432,27.1705517 30.3780634,28.8805635 27.2040196,29.5116403 L27.2040196,29.5116403 L27.6325832,27.3952874 C30.0874506,26.8499617 32.5166781,25.4689452 34.5429819,23.422212 C39.5316538,18.3848047 40.2227525,11.4832035 36.1514825,7.36927555 C35.0480447,6.25671933 33.6841734,5.49497831 32.1519199,5.11139093 L32.1519199,5.11139093 Z M23.7961825,24.4077038 L23.7934083,24.4150054 L23.3882989,26.3804874 C22.0208969,26.061086 20.7782474,25.3941805 19.7219702,24.4077038 L19.7219702,24.4077038 L23.7961825,24.4077038 Z M31.9404963,6.15087197 C33.272591,6.49048009 34.4566471,7.1555177 35.4075909,8.11822183 C39.0581995,11.806451 38.3669326,18.0622873 33.8016123,22.672128 C32.0432238,24.4496369 29.967826,25.684537 27.8643505,26.2490506 L27.8643505,26.2490506 L28.2631551,24.2834836 C29.8965389,23.788335 31.4535075,22.8384511 32.7587854,21.520347 C34.8361167,19.4232669 35.9791491,16.9726546 35.9791491,14.6233305 C35.9791491,12.7454674 35.2768697,11.0447948 33.9463723,9.70206922 C33.2714981,9.02073042 32.4477448,8.50724294 31.5270644,8.18580385 L31.5270644,8.18580385 Z M31.3164142,9.22704236 C32.0309671,9.49754023 32.6672554,9.90761704 33.2055239,10.450141 C34.3335086,11.5909696 34.9300342,13.0322665 34.9300342,14.6233305 C34.9300342,16.6913742 33.8955298,18.8735262 32.0168442,20.7714262 C30.961996,21.8373712 29.7488534,22.6119324 28.5069605,23.0795728 L28.5069605,23.0795728 L28.8463311,21.4070877 C29.7324607,21.0216325 30.5731111,20.453553 31.2812751,19.7384232 C32.4477616,18.5601528 33.1540761,17.0932155 33.271515,15.609977 C33.3893741,14.1155315 32.9118847,12.7436845 31.9228595,11.7443876 C31.6373746,11.4558056 31.3115385,11.2127311 30.9544302,11.0155036 L30.9544302,11.0155036 Z M52.0478374,13.2158671 L50.5414759,20.7650161 L48.1228406,20.7650161 C49.0236816,18.5693647 49.6079336,16.3113952 49.8433158,14.0552935 C49.8718979,13.7757111 49.8958564,13.4953646 49.9138463,13.2158671 L49.9138463,13.2158671 L52.0478374,13.2158671 Z M44.6282399,13.2158926 C44.608905,13.6351388 44.5756152,14.0560831 44.523663,14.4809329 C44.2679371,16.5963519 43.6054205,18.7208554 42.5814243,20.7641926 L42.5814243,20.7641926 L40.2298728,20.7641926 C41.2078014,18.9620621 41.8585489,17.0703599 42.1306675,15.1833274 C42.2270901,14.5184596 42.2719808,13.8615725 42.2719808,13.2158926 L42.2719808,13.2158926 Z M48.8624448,13.2158926 C48.8468087,13.4597312 48.8263809,13.7009379 48.7994801,13.9446916 C48.5605673,16.23832 47.9441183,18.5354294 46.9839274,20.7641926 L46.9839274,20.7641926 L43.7478435,20.7641926 C44.695845,18.7582123 45.3141434,16.68032 45.5658342,14.6087104 C45.6219055,14.1411549 45.6592304,13.6780144 45.6772203,13.2158926 L45.6772203,13.2158926 Z M30.7313468,12.1170311 C30.8918269,12.2285074 31.0424715,12.3545021 31.1815991,12.4943357 C31.9486086,13.269746 32.3193354,14.3457943 32.2259392,15.5249137 C32.1284237,16.7580308 31.5300487,17.9882612 30.5393422,18.988577 C30.1096858,19.4232754 29.6262277,19.7932784 29.1130947,20.0909449 L29.1130947,20.0909449 Z M18.0533379,12.0056481 C16.85146,14.0351463 16.1957526,16.2656924 16.1957526,18.4469105 C16.1957526,18.8214134 16.2156761,19.1903976 16.2545141,19.5537783 L16.2545141,19.5537783 L13.8804332,19.5537783 C13.8750531,19.403247 13.8714383,19.2523761 13.8714383,19.1009108 C13.8714383,16.7095602 14.5425295,14.2890033 15.8086331,12.0056481 L15.8086331,12.0056481 Z M24.4952758,12.0056226 C24.2718309,12.1856149 24.0576332,12.3801255 23.8513375,12.5882204 C22.4551012,13.9995468 21.6862424,15.7067569 21.6862424,17.3963922 C21.6862424,18.1673875 21.8553812,18.9017052 22.1737355,19.5537528 L22.1737355,19.5537528 L20.3071553,19.5537528 C20.1623953,19.022351 20.0881659,18.4605543 20.0881659,17.8704851 C20.0881659,15.8637407 20.9845514,13.7501896 22.560771,12.0056226 L22.560771,12.0056226 Z M21.1861562,12.0056396 C20.6317473,12.7235712 20.1750219,13.4825104 19.8258998,14.2799103 C19.3041921,15.4656521 19.039135,16.6739778 19.039135,17.8705021 C19.039135,18.4486849 19.1041173,19.0131986 19.2289539,19.5537698 L19.2289539,19.5537698 L17.3081517,19.5537698 C17.2666236,19.1931909 17.243926,18.8239519 17.243926,18.446902 C17.243926,16.2611841 17.9710887,14.013233 19.2914983,12.0056396 L19.2914983,12.0056396 Z M25.9685493,12.267002 L24.5143081,19.5529547 L23.3911151,19.5529547 C22.9604498,18.9446317 22.7343989,18.209465 22.7343989,17.3964431 C22.7343989,15.9888524 23.3947299,14.5484894 24.5938336,13.3373619 C25.014411,12.9116632 25.4802154,12.5518483 25.9685493,12.267002 L25.9685493,12.267002 Z M36.2523689,2.54706093e-05 C37.9161842,0.619300885 39.4322973,1.57105265 40.7149617,2.86623314 C42.0385658,4.20530797 43.0425546,5.73982728 43.7045669,7.43684907 L43.7045669,7.43684907 L42.3052201,7.43684907 L41.8108336,9.87557501 C41.7955338,9.82268105 41.7798136,9.76961728 41.7640094,9.71672331 C41.2099367,7.88266964 40.2116643,6.22920258 38.7983628,4.80081081 C37.551342,3.54128918 36.0363218,2.62689431 34.2989495,2.08165347 C33.8214601,1.93358432 33.3352279,1.81480638 32.8384034,1.72633847 L32.8384034,1.72633847 L33.1886184,2.54706093e-05 Z M28.7393499,8.4902031e-06 L28.3979618,1.68166302 C24.7386104,2.21968719 21.173496,4.09016383 18.3048605,6.9855778 C18.1564857,7.13534498 18.0117257,7.28698001 17.8697398,7.43683209 L17.8697398,7.43683209 L15.1655355,7.43683209 C15.685646,6.79930274 16.2428291,6.17815948 16.8396909,5.57543996 C19.5058978,2.88260225 22.6223571,1.00923893 25.7903482,8.4902031e-06 L25.7903482,8.4902031e-06 L28.7393499,8.4902031e-06 Z M44.4296699,8.4902031e-06 C46.376196,2.11542749 47.7164449,4.64737586 48.3944295,7.43683209 L48.3944295,7.43683209 L44.8249437,7.43683209 C44.1150985,5.4474926 42.9829946,3.66089917 41.4564574,2.11729534 C40.6348898,1.2878874 39.7161429,0.580908186 38.7090437,8.4902031e-06 L38.7090437,8.4902031e-06 Z M28.1734409,2.79314098 L27.7239451,5.01256497 C25.7939798,5.36524801 23.9057108,6.19924066 22.2099508,7.43685756 L22.2099508,7.43685756 L19.3483767,7.43685756 C21.9748208,4.90032448 25.1075887,3.33014632 28.1734409,2.79314098 L28.1734409,2.79314098 Z M27.495885,6.1381027 L27.2337702,7.43684907 L24.153543,7.43684907 C25.2233547,6.83217681 26.3510873,6.39382762 27.495885,6.1381027 L27.495885,6.1381027 Z M50.7743445,3.39608124e-05 C51.2630146,0.854148393 51.6898969,1.74561972 52.0535623,2.67453284 C52.6467252,4.19062841 53.0646966,5.78542816 53.2994062,7.43685756 L53.2994062,7.43685756 L49.4744467,7.43685756 C48.8468171,4.68747509 47.616189,2.1629132 45.8278733,3.39608124e-05 L45.8278733,3.39608124e-05 Z M9.86854673,3.39608124e-05 C8.14664245,1.76659052 6.63809525,3.63358618 5.35576708,5.58998368 L5.35576708,5.58998368 L6.48988858,3.39608124e-05 Z M55,3.39608124e-05 L53.9433865,5.21548082 C53.7069115,4.21253313 53.4010829,3.23514095 53.0284225,2.28449291 C52.7209126,1.49796049 52.3700251,0.73613457 51.9777776,3.39608124e-05 L51.9777776,3.39608124e-05 L55,3.39608124e-05 Z" id="Logo"></path>
                    </g>
                </g>
            </g>
        </g>
    </g>
</svg>