<?xml version="1.0" encoding="UTF-8"?>
<svg version="1.1" xmlns="http://www.w3.org/2000/svg" width="512" height="512" fill="currentColor">
<path d="M0 0 C3.67312912 3.22405981 6.12337673 6.51971919 8.49609375 10.76953125 C9.1300708 11.89367432 9.76404785 13.01781738 10.41723633 14.17602539 C11.09065755 15.38818359 11.76407878 16.6003418 12.4375 17.8125 C13.50332005 19.70863339 14.57216897 21.60303917 15.64109802 23.49742126 C16.36662117 24.78372382 17.09119553 26.07056198 17.81483459 27.35792542 C21.2492664 33.46413694 24.77059939 39.51804582 28.3125 45.5625 C29.44663345 47.50389523 30.58074839 49.44530127 31.71484375 51.38671875 C33.3648139 54.20804548 35.01660379 57.02825796 36.67236328 59.84619141 C38.24347321 62.52039129 39.80958163 65.19746578 41.375 67.875 C42.08136597 69.07104858 42.08136597 69.07104858 42.80200195 70.29125977 C46 75.77328152 46 75.77328152 46 78 C46.62640381 77.73372803 47.25280762 77.46745605 47.89819336 77.19311523 C71.0403251 67.43878542 94.11440244 60.51385371 119 57 C119.79019531 56.88285645 120.58039063 56.76571289 121.39453125 56.64501953 C170.12850887 49.66078466 221.31278117 57.92464498 266 78 C266.24234375 77.33613281 266.4846875 76.67226562 266.734375 75.98828125 C268.32481947 72.23306515 270.25608946 68.74136394 272.25 65.1875 C272.68546143 64.40761719 273.12092285 63.62773437 273.56958008 62.82421875 C277.77621522 55.32883962 282.101956 47.90346553 286.45385742 40.49169922 C289.69406149 34.97076685 292.89985971 29.43327042 296.0546875 23.86328125 C297.06356136 22.08898026 298.07295247 20.31497436 299.08242798 18.54101562 C300.04001726 16.85215194 300.98922977 15.1585473 301.93823242 13.46484375 C309.14269593 0.81637259 309.14269593 0.81637259 315.5 -1 C319.4426352 -1 320.9883641 -0.49535546 324 2 C326.11457929 4.59516549 325.998174 6.08098293 325.921875 9.46484375 C325.1055545 15.32925315 321.92934854 19.91224636 318.875 24.875 C317.59147296 27.01504056 316.30895536 29.15568679 315.02734375 31.296875 C314.36202637 32.39966797 313.69670898 33.50246094 313.01123047 34.63867188 C309.7478671 40.09266397 306.59734677 45.61062023 303.4375 51.125 C296.71737784 62.80498204 289.88599841 74.41716291 283 86 C283.47606689 86.2902002 283.95213379 86.58040039 284.44262695 86.87939453 C301.01830804 97.03568367 317.0877885 107.74181984 331.13671875 121.25390625 C333.82306611 123.8303076 336.57711224 126.29608045 339.375 128.75 C343.62652358 132.57090302 347.35105665 136.60876625 351 141 C351.73605469 141.84820312 352.47210938 142.69640625 353.23046875 143.5703125 C382.87211526 178.1600876 401.8982045 220.29561632 410 265 C410.24363281 266.29292969 410.48726563 267.58585937 410.73828125 268.91796875 C411.93917721 275.88643306 412 281.67844815 412 289 C243.04 289 74.08 289 -100 289 C-100 276.59526775 -100 276.59526775 -99.3359375 272.44921875 C-99.18664795 271.5149707 -99.0373584 270.58072266 -98.88354492 269.61816406 C-98.7157251 268.65104492 -98.54790527 267.68392578 -98.375 266.6875 C-98.19751221 265.65206055 -98.02002441 264.61662109 -97.8371582 263.54980469 C-95.91475377 252.82609937 -93.19034042 242.41027493 -90 232 C-89.75975098 231.19739746 -89.51950195 230.39479492 -89.27197266 229.56787109 C-82.62355798 207.7320826 -72.12029968 185.68634532 -59 167 C-58.47438477 166.2457373 -57.94876953 165.49147461 -57.40722656 164.71435547 C-50.70032924 155.16668732 -43.69513528 146.13596407 -35.60546875 137.72265625 C-33.43639858 135.4560267 -31.39076976 133.15106841 -29.375 130.75 C-25.30584831 126.06460658 -20.67817816 122.06280253 -16 118 C-14.61748047 116.75089844 -14.61748047 116.75089844 -13.20703125 115.4765625 C-0.35282898 104.03386032 14.50630291 95.18639017 29 86 C28.65445068 85.40912598 28.30890137 84.81825195 27.95288086 84.20947266 C20.4472223 71.37042488 12.96536581 58.51896194 5.56958008 45.61621094 C2.50766588 40.28786214 -0.59433641 34.99284762 -3.80078125 29.75 C-4.70364868 28.26330811 -4.70364868 28.26330811 -5.62475586 26.74658203 C-6.75557236 24.89127952 -7.8975815 23.04273212 -9.05297852 21.20263672 C-12.20686762 16.01195509 -13.87258328 12.11600272 -14 6 C-12.78815954 3.06607046 -11.72710571 1.57129734 -9.25 -0.375 C-5.81167782 -1.33008949 -3.43602312 -0.90421661 0 0 Z M19.75 183.75 C16.69581438 189.42205901 16.32520011 194.56897296 18.125 200.75 C19.67236333 204.77594532 21.61969064 207.2485854 25 210 C25.886875 210.7425 26.77375 211.485 27.6875 212.25 C32.67652807 214.88571294 37.63499584 215.67181179 43.2109375 214.55859375 C48.61359091 212.74735937 53.20868621 209.90949414 56.2578125 204.95703125 C59.1677527 199.0455793 60.20937243 194.04256515 58.3046875 187.67578125 C55.59113342 180.77788117 52.13331998 177.65211417 45.5625 174.1875 C34.27132947 170.42377649 26.76366217 175.17774623 19.75 183.75 Z M257.5625 180.375 C253.90509177 185.14685395 252.50147743 189.78257631 252.6875 195.8515625 C253.50595649 201.47845088 255.85352197 205.80140934 259.75 209.875 C266.09915139 214.02636822 271.05135508 215.67449735 278.6796875 214.56640625 C284.99558893 213.0246458 289.44188578 208.22150507 293 203 C295.70640498 196.52816201 295.2570991 191.20560271 292.75 184.8125 C289.41151201 179.44707288 285.10075958 175.50361185 279.125 173.3125 C270.61758032 172.06140887 263.43461018 173.91567881 257.5625 180.375 Z " fill="#000000" transform="translate(100,112)"/>
</svg>
