<svg viewBox="0 0 24 24" fill="currentColor" xmlns="http://www.w3.org/2000/svg" id="Linux--Streamline-Unicons" height="24" width="24">
  <path d="M20.9718 18.2924c-0.1163 -0.2326 -0.2327 -0.4653 -0.2327 -0.698 0 -0.4653 -0.2326 -0.8143 -0.5816 -1.1633 -0.1164 -0.1163 -0.349 -0.2326 -0.4654 -0.2326 0.698 -2.094 -0.349 -4.188 -1.5123 -5.7003 -0.9306 -1.3959 -2.3266 -2.4429 -2.2103 -4.3042 0 -2.2103 0.2327 -6.2819 -3.8389 -5.9329C7.9427 0.4937 9.106 4.798 8.9896 6.3103c0 1.2797 -0.5816 2.5593 -1.5123 3.6063 -0.2326 0.2326 -0.4653 0.5816 -0.5816 0.8143 -1.1633 1.396 -1.745 3.2573 -1.745 5.0022 -0.2327 0.2327 -0.4653 0.4654 -0.5817 0.698 -0.1163 0.1164 -0.2326 0.2327 -0.2326 0.349 -0.1164 0.1164 -0.349 0.2327 -0.5817 0.349 -0.4653 0.1163 -0.8143 0.349 -1.047 0.8143 -0.1163 0.349 -0.2326 0.8144 -0.1163 1.2797 0.1163 0.2326 0.1163 0.4653 0 0.8143 -0.2327 0.4653 -0.2327 1.047 0 1.6286 0.349 0.4654 0.9307 0.5817 1.745 0.698 0.5816 0 1.2796 0.2327 1.8613 0.4654 0.5816 0.349 1.2796 0.5816 1.9776 0.5816 0.349 0 0.8143 -0.1163 1.1633 -0.2326 0.349 -0.2327 0.5817 -0.4654 0.698 -0.8144 0.4653 0 1.1633 -0.2326 1.9776 -0.2326 0.698 0 1.396 0.2326 2.3267 0.1163 0 0.1163 0 0.2327 0.1163 0.349 0.2327 0.5817 0.8143 1.047 1.5123 1.1633h0.2327c0.9306 -0.1163 1.8613 -0.5816 2.4429 -1.2796 0.4654 -0.4654 1.047 -0.8144 1.6287 -1.047 0.698 -0.349 1.1633 -0.5817 1.2796 -1.1633 0.1163 -0.8143 -0.1163 -1.2797 -0.5816 -1.9777ZM12.9449 3.402c0.698 0.1163 1.2797 0.698 1.1633 1.396 0 0.349 -0.1163 0.698 -0.349 1.047h-0.1163c-0.2327 -0.1164 -0.349 -0.1164 -0.4653 -0.2327 0.1163 -0.1163 0.1163 -0.349 0.2326 -0.5816 0 -0.4654 -0.2326 -0.8144 -0.4653 -0.8144 -0.349 0 -0.5817 0.349 -0.5817 0.8144v0.1163c-0.1163 -0.1163 -0.3489 -0.1163 -0.4653 -0.2327V4.798c-0.1163 -0.5817 0.349 -1.2797 1.047 -1.396Zm-0.349 2.3266c0.1164 0.1164 0.349 0.2327 0.4654 0.2327 0.1163 0 0.3489 0.1163 0.4653 0.2327 0.2326 0.1163 0.4653 0.2326 0.4653 0.5816s-0.349 0.698 -1.047 0.9307c-0.2326 0.1163 -0.349 0.1163 -0.4653 0.2326 -0.349 0.2327 -0.698 0.349 -1.1633 0.349 -0.349 0 -0.698 -0.2326 -0.9307 -0.4653 -0.1163 -0.1163 -0.2326 -0.2327 -0.4653 -0.349 -0.1163 -0.1163 -0.349 -0.349 -0.4653 -0.698 0 -0.1163 0.1163 -0.2326 0.2326 -0.349 0.349 -0.2326 0.4654 -0.349 0.5817 -0.4653l0.1163 -0.1163c0.2327 -0.349 0.698 -0.5817 1.1633 -0.5817 0.349 0.1163 0.698 0.2327 1.047 0.4653ZM10.153 3.6347c0.4653 0 0.8143 0.4653 0.9306 1.2796v0.2327c-0.1163 0 -0.349 0.1163 -0.4653 0.2326V5.147c0 -0.349 -0.2327 -0.698 -0.4653 -0.5817 -0.2327 0 -0.349 0.349 -0.349 0.698 0 0.2327 0.1163 0.349 0.2326 0.4653 0 0 -0.1163 0.1164 -0.2326 0.1164 -0.2327 -0.2327 -0.4654 -0.5817 -0.4654 -0.9307 0 -0.698 0.349 -1.2796 0.8144 -1.2796ZM8.9896 22.364c-0.8143 0.349 -1.8613 0.2327 -2.5592 -0.2326 -0.698 -0.349 -1.2797 -0.4654 -2.094 -0.4654 -0.5817 -0.1163 -1.1633 -0.1163 -1.2797 -0.349 -0.1163 -0.2326 -0.1163 -0.5816 0.1164 -1.1633 0.1163 -0.349 0.1163 -0.698 0 -1.0469 -0.1164 -0.349 -0.1164 -0.5817 0 -0.9307 0.1163 -0.349 0.349 -0.4653 0.698 -0.5817 0.3489 -0.1163 0.5816 -0.2326 0.8143 -0.4653 0.1163 -0.1163 0.2326 -0.2326 0.349 -0.4653 0.349 -0.4653 0.5816 -0.698 0.9306 -0.698 0.698 0.1163 1.2797 1.1633 1.745 2.2103 0.2326 0.349 0.4653 0.8143 0.8143 1.1633 0.4653 0.5817 1.047 1.396 1.047 1.8613 0 0.5817 -0.2327 0.9307 -0.5817 1.1633Zm5.7003 -2.5593c0 0.1164 0 0.1164 -0.1163 0.2327 -1.396 1.047 -3.2573 1.1633 -4.7696 0.349l-0.698 -1.047c1.047 -0.1163 0.8143 -1.5123 -1.396 -2.9083 -2.3266 -1.5123 -0.698 -4.3042 0.1163 -5.5839 0.1164 -0.1163 0.1164 0 -0.349 0.9307 -0.349 0.6979 -1.0469 2.4429 -0.1163 3.7226 0 -0.9307 0.2327 -1.8613 0.5817 -2.792 0.8143 -1.5123 1.3959 -3.2573 1.7449 -5.0022 0.1164 0.1163 0.1164 0.1163 0.2327 0.1163 0.1163 0.1163 0.2327 0.2327 0.349 0.2327 0.2326 0.349 0.698 0.4653 1.047 0.4653h0.1163c0.4653 0 0.9306 -0.1163 1.2796 -0.4653 0.1164 -0.1164 0.2327 -0.2327 0.4654 -0.2327 0.349 -0.1163 0.698 -0.349 1.047 -0.698 0.4653 1.5123 0.9306 2.9083 1.6286 4.1879 0.4653 0.9307 0.8143 1.8613 1.047 2.9083 0.349 0 0.8143 0.1163 1.1633 0.349 0.9306 0.4653 1.2796 0.8143 1.1633 1.396h-0.2327c0 -0.349 -0.2326 -0.698 -1.0469 -1.047 -0.8144 -0.349 -1.5123 -0.349 -1.745 0.4653 -0.1163 0 -0.2327 0.1164 -0.349 0.1164 -0.9306 0.4653 -0.9306 1.7449 -1.047 3.0246 0.1164 0.4653 0 0.8143 -0.1163 1.2796Zm5.3512 0.698c-0.698 0.2327 -1.2796 0.698 -1.7449 1.2797 -0.4654 0.698 -1.2797 1.1633 -2.2103 1.047 -0.4654 0 -0.9307 -0.349 -1.047 -0.8144 -0.1163 -0.698 -0.1163 -1.3959 0.2326 -2.0939 0.1164 -0.4654 0.2327 -0.8144 0.349 -1.2797 0.1164 -1.396 0.1164 -2.2103 0.698 -2.5593 0 0.5817 0.349 0.9307 0.8143 1.1633 0.5817 0 1.1634 -0.1163 1.6287 -0.5816h0.2326c0.349 0 0.5817 0 0.8144 0.2326 0.2326 0.2327 0.349 0.5817 0.349 0.8144 0 0.3489 0.2326 0.6979 0.3489 1.0469 0.5817 0.5817 0.5817 0.9307 0.5817 1.047 -0.1163 0.2327 -0.5817 0.4653 -1.047 0.698ZM9.5713 6.543c-0.1163 0 -0.1163 0 -0.1163 0.1163 0 0 0 0.1163 0.1163 0.1163s0.1163 0.1164 0.1163 0.1164c0.349 0.4653 0.9307 0.698 1.6287 0.8143 0.5816 -0.1163 1.1633 -0.2327 1.7449 -0.698l0.698 -0.349c0.1164 0 0.1164 -0.1163 0.1164 -0.1163 0 -0.1164 0 -0.1164 -0.1164 -0.1164 -0.2326 0.1164 -0.5816 0.2327 -0.8143 0.349 -0.4653 0.349 -1.047 0.5817 -1.6286 0.5817 -0.5817 0 -1.047 -0.349 -1.396 -0.698 -0.1163 0 -0.2327 -0.1163 -0.349 -0.1163Z" fill="#000000" stroke-width="1"></path>
</svg>
