<svg id="Icons_Cisco_Logo" data-name="Icons/Cisco_Logo" xmlns="http://www.w3.org/2000/svg" xmlns:xlink="http://www.w3.org/1999/xlink" width="173.207" height="39.92" viewBox="0 0 173.207 39.92">
  <defs>
    <clipPath id="clip-path">
      <path id="Mask" d="M8.508,34.653A6.1,6.1,0,0,1,6.3,28.237a5.968,5.968,0,0,1,4.911-4.542,8.526,8.526,0,0,1,3.581.209.523.523,0,0,1,.449.6c-.017.89-.006,1.78-.006,2.687-.787-.194-1.457-.407-2.144-.52a3.143,3.143,0,0,0-3.456,2,3.078,3.078,0,0,0,1.422,3.8,4.215,4.215,0,0,0,3.595-.009c.548-.216.58-.206.583.38,0,.737.022,1.476-.017,2.211a.673.673,0,0,1-.347.51,9.054,9.054,0,0,1-2.454.365A6.471,6.471,0,0,1,8.508,34.653Zm19.212,1.166a8.682,8.682,0,0,1-1.112-.168c-.146-.037-.363-.208-.368-.325-.032-.811-.017-1.624-.017-2.5a18.3,18.3,0,0,0,1.971.326,11.14,11.14,0,0,0,2.048-.091.893.893,0,0,0,.862-.8.913.913,0,0,0-.69-.994c-.741-.3-1.5-.54-2.223-.882a3.126,3.126,0,0,1-2.031-3.2,3.45,3.45,0,0,1,2.625-3.344,8.656,8.656,0,0,1,4.41.068.573.573,0,0,1,.339.415c.039.61.019,1.223.017,1.835,0,.377-.222.357-.512.32-.742-.1-1.487-.183-2.234-.215a1.722,1.722,0,0,0-.9.214.755.755,0,0,0-.07,1.35,9.166,9.166,0,0,0,1.526.592,3.95,3.95,0,0,1,2.772,2.262,3.674,3.674,0,0,1-2.249,4.806,7.218,7.218,0,0,1-2.585.433A13.964,13.964,0,0,1,27.721,35.819ZM38.652,33.85a5.472,5.472,0,0,1-1.41-3.025,6.165,6.165,0,0,1,1.329-5.068,5.817,5.817,0,0,1,4.3-2.123,18.107,18.107,0,0,1,2.885.253c.35.036.505.23.5.6-.019.888-.006,1.777-.006,2.671-.75-.177-1.422-.374-2.107-.489a3.188,3.188,0,0,0-3.455,1.936,3.128,3.128,0,0,0,1.342,3.84,4.083,4.083,0,0,0,3.108.2c.33-.086.65-.214,1.04-.345a2.3,2.3,0,0,1,.068.37c.006.8,0,1.6.005,2.4a.448.448,0,0,1-.365.515,10.041,10.041,0,0,1-2.441.329A6.333,6.333,0,0,1,38.652,33.85Zm16.892,2.063a5.976,5.976,0,0,1-6.267-6.122,6.024,6.024,0,0,1,1.7-4.349,6.373,6.373,0,0,1,4.592-1.85h.1a6.293,6.293,0,0,1,4.377,1.813,6.16,6.16,0,0,1-4.491,10.506Zm-3.006-6.16a3.075,3.075,0,0,0,.895,2.193,2.954,2.954,0,0,0,2.107.877h.009a2.96,2.96,0,0,0,3-3.017,2.921,2.921,0,0,0-2.95-3.087h-.019A2.942,2.942,0,0,0,52.538,29.752ZM19.177,35.2q.007-5.46,0-10.919c0-.369.176-.5.523-.491.688.01,1.378.016,2.066,0,.39-.011.521.151.519.53-.011,1.8,0,3.608,0,5.412q0,2.66,0,5.319c0,.59-.03.617-.605.62-.256,0-.512,0-.768,0-.417,0-.835,0-1.252.005h-.023C19.308,35.674,19.176,35.535,19.177,35.2Zm46.208-.42a3.19,3.19,0,0,0-.438-.681c.529,0,1.085-.017,1.64.018.087.005.169.239.234.377.078.165.137.34.254.643a8.935,8.935,0,0,1,.363-.817c.059-.1.2-.159.3-.237.068.108.191.215.195.326.015.4-.01.808-.02,1.213l-.231.023-.16-.619-.418.6c-.179-.233-.357-.466-.532-.695-.027.2-.058.43-.09.659L66.3,35.6c-.033-.408-.067-.816-.1-1.267-.925.1-.212.962-.747,1.326A4.042,4.042,0,0,0,65.385,34.782ZM49,18.113a1.851,1.851,0,0,1-.31-.958q-.029-7.764-.008-15.529a1.468,1.468,0,0,1,.928-1.5A1.4,1.4,0,0,1,51.28.49a2.107,2.107,0,0,1,.4,1.149c.035,2.571.018,5.144.017,7.716q0,3.93,0,7.859a1.526,1.526,0,0,1-1.024,1.435A1.475,1.475,0,0,1,49,18.113Zm-32.645-.358a1.865,1.865,0,0,1-.1-.644q-.009-7.72,0-15.44a1.519,1.519,0,1,1,3.021.019q0,3.861,0,7.721c0,2.6,0,5.209,0,7.814A1.538,1.538,0,0,1,18.059,18.7a1.65,1.65,0,0,1-.286.025A1.492,1.492,0,0,1,16.358,17.755Zm-7.326-2.11A1.592,1.592,0,0,1,8.1,14.124c-.019-2.3-.04-4.61,0-6.914a1.541,1.541,0,1,1,3.079-.022c.011,1.16,0,2.32,0,3.48,0,1.176.02,2.353-.007,3.528a1.557,1.557,0,0,1-1.507,1.6A1.5,1.5,0,0,1,9.032,15.645Zm55.9-1.2a26.055,26.055,0,0,1,.026-3.6,1.323,1.323,0,0,1,1.42-1.172,1.461,1.461,0,0,1,1.495,1.11,1.067,1.067,0,0,1,.057.275c.006.564,0,1.128,0,1.691h.017c0,.485.014.972,0,1.457a1.551,1.551,0,0,1-1.427,1.586q-.068.007-.136.007A1.457,1.457,0,0,1,64.928,14.441Zm-40.582-.234q-.015-3.5,0-7a1.511,1.511,0,0,1,1.935-1.568A1.415,1.415,0,0,1,27.36,7.053c.007,1.207,0,2.414,0,3.621,0,1.175,0,2.35,0,3.525a1.521,1.521,0,0,1-1.444,1.592h-.034A1.541,1.541,0,0,1,24.346,14.207Zm17.707,1.584a1.516,1.516,0,0,1-1.462-1.576c-.007-1.175,0-2.35,0-3.526,0-1.159,0-2.319,0-3.479a1.512,1.512,0,1,1,3.014-.025q.017,3.525,0,7.052a1.539,1.539,0,0,1-1.538,1.555ZM.732,15.544A1.515,1.515,0,0,1,.012,14.2c-.023-.485,0-.972,0-1.459s-.012-.973,0-1.46A1.528,1.528,0,0,1,1.4,9.666a1.449,1.449,0,0,1,1.672,1.448,19.583,19.583,0,0,1-.012,3.194,1.5,1.5,0,0,1-1.462,1.481A1.721,1.721,0,0,1,.732,15.544Zm31.927-.55a2.269,2.269,0,0,1-.22-.9c-.028-.94-.027-1.882-.006-2.822a1.526,1.526,0,0,1,1.677-1.606,1.367,1.367,0,0,1,1.324,1.184,18.117,18.117,0,0,1,.125,1.87l-.047,0c0,.517.032,1.037-.007,1.551a1.533,1.533,0,0,1-1.27,1.489,1.277,1.277,0,0,1-.26.026A1.493,1.493,0,0,1,32.659,14.994Zm24.858.567a1.508,1.508,0,0,1-.752-1.42c-.015-1.159,0-2.318,0-3.477,0-1.128-.005-2.255,0-3.383a1.554,1.554,0,1,1,3.095-.034c.015,2.286.025,4.574,0,6.86a1.56,1.56,0,0,1-1.5,1.681A1.723,1.723,0,0,1,57.517,15.561Z" transform="translate(0 0)" fill="#fff"/>
    </clipPath>
  </defs>
  <g id="Colors_White" data-name="Colors/White" transform="translate(0 0)" opacity="0">
    <path id="Mask-2" data-name="Mask" d="M8.508,34.653A6.1,6.1,0,0,1,6.3,28.237a5.968,5.968,0,0,1,4.911-4.542,8.526,8.526,0,0,1,3.581.209.523.523,0,0,1,.449.6c-.017.89-.006,1.78-.006,2.687-.787-.194-1.457-.407-2.144-.52a3.143,3.143,0,0,0-3.456,2,3.078,3.078,0,0,0,1.422,3.8,4.215,4.215,0,0,0,3.595-.009c.548-.216.58-.206.583.38,0,.737.022,1.476-.017,2.211a.673.673,0,0,1-.347.51,9.054,9.054,0,0,1-2.454.365A6.471,6.471,0,0,1,8.508,34.653Zm19.212,1.166a8.682,8.682,0,0,1-1.112-.168c-.146-.037-.363-.208-.368-.325-.032-.811-.017-1.624-.017-2.5a18.3,18.3,0,0,0,1.971.326,11.14,11.14,0,0,0,2.048-.091.893.893,0,0,0,.862-.8.913.913,0,0,0-.69-.994c-.741-.3-1.5-.54-2.223-.882a3.126,3.126,0,0,1-2.031-3.2,3.45,3.45,0,0,1,2.625-3.344,8.656,8.656,0,0,1,4.41.068.573.573,0,0,1,.339.415c.039.61.019,1.223.017,1.835,0,.377-.222.357-.512.32-.742-.1-1.487-.183-2.234-.215a1.722,1.722,0,0,0-.9.214.755.755,0,0,0-.07,1.35,9.166,9.166,0,0,0,1.526.592,3.95,3.95,0,0,1,2.772,2.262,3.674,3.674,0,0,1-2.249,4.806,7.218,7.218,0,0,1-2.585.433A13.964,13.964,0,0,1,27.721,35.819ZM38.652,33.85a5.472,5.472,0,0,1-1.41-3.025,6.165,6.165,0,0,1,1.329-5.068,5.817,5.817,0,0,1,4.3-2.123,18.107,18.107,0,0,1,2.885.253c.35.036.505.23.5.6-.019.888-.006,1.777-.006,2.671-.75-.177-1.422-.374-2.107-.489a3.188,3.188,0,0,0-3.455,1.936,3.128,3.128,0,0,0,1.342,3.84,4.083,4.083,0,0,0,3.108.2c.33-.086.65-.214,1.04-.345a2.3,2.3,0,0,1,.068.37c.006.8,0,1.6.005,2.4a.448.448,0,0,1-.365.515,10.041,10.041,0,0,1-2.441.329A6.333,6.333,0,0,1,38.652,33.85Zm16.892,2.063a5.976,5.976,0,0,1-6.267-6.122,6.024,6.024,0,0,1,1.7-4.349,6.373,6.373,0,0,1,4.592-1.85h.1a6.293,6.293,0,0,1,4.377,1.813,6.16,6.16,0,0,1-4.491,10.506Zm-3.006-6.16a3.075,3.075,0,0,0,.895,2.193,2.954,2.954,0,0,0,2.107.877h.009a2.96,2.96,0,0,0,3-3.017,2.921,2.921,0,0,0-2.95-3.087h-.019A2.942,2.942,0,0,0,52.538,29.752ZM19.177,35.2q.007-5.46,0-10.919c0-.369.176-.5.523-.491.688.01,1.378.016,2.066,0,.39-.011.521.151.519.53-.011,1.8,0,3.608,0,5.412q0,2.66,0,5.319c0,.59-.03.617-.605.62-.256,0-.512,0-.768,0-.417,0-.835,0-1.252.005h-.023C19.308,35.674,19.176,35.535,19.177,35.2Zm46.208-.42a3.19,3.19,0,0,0-.438-.681c.529,0,1.085-.017,1.64.018.087.005.169.239.234.377.078.165.137.34.254.643a8.935,8.935,0,0,1,.363-.817c.059-.1.2-.159.3-.237.068.108.191.215.195.326.015.4-.01.808-.02,1.213l-.231.023-.16-.619-.418.6c-.179-.233-.357-.466-.532-.695-.027.2-.058.43-.09.659L66.3,35.6c-.033-.408-.067-.816-.1-1.267-.925.1-.212.962-.747,1.326A4.042,4.042,0,0,0,65.385,34.782ZM49,18.113a1.851,1.851,0,0,1-.31-.958q-.029-7.764-.008-15.529a1.468,1.468,0,0,1,.928-1.5A1.4,1.4,0,0,1,51.28.49a2.107,2.107,0,0,1,.4,1.149c.035,2.571.018,5.144.017,7.716q0,3.93,0,7.859a1.526,1.526,0,0,1-1.024,1.435A1.475,1.475,0,0,1,49,18.113Zm-32.645-.358a1.865,1.865,0,0,1-.1-.644q-.009-7.72,0-15.44a1.519,1.519,0,1,1,3.021.019q0,3.861,0,7.721c0,2.6,0,5.209,0,7.814A1.538,1.538,0,0,1,18.059,18.7a1.65,1.65,0,0,1-.286.025A1.492,1.492,0,0,1,16.358,17.755Zm-7.326-2.11A1.592,1.592,0,0,1,8.1,14.124c-.019-2.3-.04-4.61,0-6.914a1.541,1.541,0,1,1,3.079-.022c.011,1.16,0,2.32,0,3.48,0,1.176.02,2.353-.007,3.528a1.557,1.557,0,0,1-1.507,1.6A1.5,1.5,0,0,1,9.032,15.645Zm55.9-1.2a26.055,26.055,0,0,1,.026-3.6,1.323,1.323,0,0,1,1.42-1.172,1.461,1.461,0,0,1,1.495,1.11,1.067,1.067,0,0,1,.057.275c.006.564,0,1.128,0,1.691h.017c0,.485.014.972,0,1.457a1.551,1.551,0,0,1-1.427,1.586q-.068.007-.136.007A1.457,1.457,0,0,1,64.928,14.441Zm-40.582-.234q-.015-3.5,0-7a1.511,1.511,0,0,1,1.935-1.568A1.415,1.415,0,0,1,27.36,7.053c.007,1.207,0,2.414,0,3.621,0,1.175,0,2.35,0,3.525a1.521,1.521,0,0,1-1.444,1.592h-.034A1.541,1.541,0,0,1,24.346,14.207Zm17.707,1.584a1.516,1.516,0,0,1-1.462-1.576c-.007-1.175,0-2.35,0-3.526,0-1.159,0-2.319,0-3.479a1.512,1.512,0,1,1,3.014-.025q.017,3.525,0,7.052a1.539,1.539,0,0,1-1.538,1.555ZM.732,15.544A1.515,1.515,0,0,1,.012,14.2c-.023-.485,0-.972,0-1.459s-.012-.973,0-1.46A1.528,1.528,0,0,1,1.4,9.666a1.449,1.449,0,0,1,1.672,1.448,19.583,19.583,0,0,1-.012,3.194,1.5,1.5,0,0,1-1.462,1.481A1.721,1.721,0,0,1,.732,15.544Zm31.927-.55a2.269,2.269,0,0,1-.22-.9c-.028-.94-.027-1.882-.006-2.822a1.526,1.526,0,0,1,1.677-1.606,1.367,1.367,0,0,1,1.324,1.184,18.117,18.117,0,0,1,.125,1.87l-.047,0c0,.517.032,1.037-.007,1.551a1.533,1.533,0,0,1-1.27,1.489,1.277,1.277,0,0,1-.26.026A1.493,1.493,0,0,1,32.659,14.994Zm24.858.567a1.508,1.508,0,0,1-.752-1.42c-.015-1.159,0-2.318,0-3.477,0-1.128-.005-2.255,0-3.383a1.554,1.554,0,1,1,3.095-.034c.015,2.286.025,4.574,0,6.86a1.56,1.56,0,0,1-1.5,1.681A1.723,1.723,0,0,1,57.517,15.561Z" transform="translate(0 0)" fill="#fff"/>
    <g id="Colors_White-2" data-name="Colors/White" transform="translate(0 0)" clip-path="url(#clip-path)">
      <g id="Colors_White-3" data-name="Colors/White" transform="translate(-107.386 -121.554)">
        <rect id="Rectangle" width="295.948" height="296.545" fill="#fff"/>
      </g>
    </g>
  </g>
  <g id="Layer_2" data-name="Layer 2" transform="translate(0)">
    <g id="logo">
      <rect id="Rectangle_5120" data-name="Rectangle 5120" width="2.965" height="11.768" transform="translate(19.153 23.719)" fill="#393a3b"/>
      <path id="Path_14582" data-name="Path 14582" d="M69.644,42.025a5.221,5.221,0,0,0-2.5-.611,3.142,3.142,0,1,0,0,6.278,5.306,5.306,0,0,0,2.5-.611v3.154a9.268,9.268,0,0,1-2.708.422,6.115,6.115,0,1,1,0-12.227,9.17,9.17,0,0,1,2.708.422Z" transform="translate(-23.581 -14.931)" fill="#393a3b"/>
      <path id="Path_14583" data-name="Path 14583" d="M18.948,42.025a5.154,5.154,0,0,0-2.494-.611,3.142,3.142,0,1,0,0,6.278,5.245,5.245,0,0,0,2.494-.611v3.154a9.17,9.17,0,0,1-2.708.422,6.115,6.115,0,1,1,0-12.227,9.109,9.109,0,0,1,2.708.422Z" transform="translate(-3.879 -14.931)" fill="#393a3b"/>
      <path id="Path_14584" data-name="Path 14584" d="M86.678,41.428a3.1,3.1,0,1,0,3.057,3.093,3.057,3.057,0,0,0-3.057-3.093m6.217,3.093a6.217,6.217,0,1,1-6.217-6.113,6.04,6.04,0,0,1,6.217,6.113" transform="translate(-31.273 -14.921)" fill="#393a3b"/>
      <path id="Path_14585" data-name="Path 14585" d="M49.969,41.339a10.32,10.32,0,0,0-2.323-.361c-1.223,0-1.834.4-1.834.966,0,.715.868.966,1.357,1.119l.819.257a3.546,3.546,0,0,1,2.806,3.368c0,2.959-2.6,3.949-4.891,3.949a18.609,18.609,0,0,1-3.2-.318V47.612a11.475,11.475,0,0,0,2.806.434c1.473,0,2.152-.428,2.152-1.1s-.611-.935-1.32-1.168l-.611-.208c-1.651-.52-3.057-1.492-3.057-3.442,0-2.2,1.651-3.668,4.383-3.668a12.575,12.575,0,0,1,2.9.379Z" transform="translate(-16.585 -14.942)" fill="#393a3b"/>
      <path id="Path_14586" data-name="Path 14586" d="M2.953,17.23A1.479,1.479,0,0,0,0,17.23v3.087a1.479,1.479,0,0,0,2.953,0Z" transform="translate(0 -6.153)" fill="#393a3b"/>
      <path id="Path_14587" data-name="Path 14587" d="M16.2,10.533a1.473,1.473,0,1,0-2.947,0V17.68a1.473,1.473,0,1,0,2.947,0Z" transform="translate(-5.15 -3.515)" fill="#393a3b"/>
      <path id="Path_14588" data-name="Path 14588" d="M29.437,1.463a1.473,1.473,0,1,0-2.947,0v15.65a1.473,1.473,0,0,0,2.947,0Z" transform="translate(-10.296 0.01)" fill="#393a3b"/>
      <path id="Path_14589" data-name="Path 14589" d="M42.687,10.533a1.473,1.473,0,1,0-2.947,0V17.68a1.473,1.473,0,1,0,2.947,0Z" transform="translate(-15.446 -3.515)" fill="#393a3b"/>
      <path id="Path_14590" data-name="Path 14590" d="M55.919,17.113a1.473,1.473,0,1,0-2.94,0V20.2a1.473,1.473,0,1,0,2.94,0Z" transform="translate(-20.59 -6.036)" fill="#393a3b"/>
      <path id="Path_14591" data-name="Path 14591" d="M69.129,10.594a1.473,1.473,0,0,0-2.94,0V17.74a1.473,1.473,0,1,0,2.94,0Z" transform="translate(-25.724 -3.576)" fill="#393a3b"/>
      <path id="Path_14592" data-name="Path 14592" d="M82.419,1.524a1.473,1.473,0,0,0-2.94,0v15.65a1.473,1.473,0,1,0,2.94,0Z" transform="translate(-30.89 -0.05)" fill="#393a3b"/>
      <path id="Path_14593" data-name="Path 14593" d="M95.663,10.59a1.479,1.479,0,0,0-2.953,0v7.146a1.479,1.479,0,0,0,2.953,0Z" transform="translate(-36.034 -3.572)" fill="#393a3b"/>
      <path id="Path_14594" data-name="Path 14594" d="M108.9,17.113a1.473,1.473,0,1,0-2.94,0V20.2a1.473,1.473,0,1,0,2.94,0Z" transform="translate(-41.182 -6.036)" fill="#393a3b"/>
      <path id="Path_14595" data-name="Path 14595" d="M107.182,55.51v.177h-.526v1.369h-.214V55.687h-.532V55.51Z" transform="translate(-41.164 -21.569)" fill="#393a3b"/>
      <path id="Path_14596" data-name="Path 14596" d="M108.17,55.51h.336l.465,1.265h.006l.452-1.265h.33v1.547h-.22V55.785h-.012l-.471,1.272h-.2l-.459-1.272h-.012v1.272h-.214Z" transform="translate(-42.043 -21.569)" fill="#393a3b"/>
      <path id="Path_14597" data-name="Path 14597" d="M129.07,16.02V2.76h1.871l4.279,6.725a38.29,38.29,0,0,1,2.366,4.292h.037c-.153-1.773-.2-3.387-.2-5.453V2.76h1.614V16.02h-1.73L133.1,9.3a41.575,41.575,0,0,1-2.445-4.426h-.061c.1,1.675.141,3.264.141,5.5v5.667Z" transform="translate(-50.166 -1.067)" fill="#217da7"/>
      <path id="Path_14598" data-name="Path 14598" d="M150.671,13.812a3.053,3.053,0,0,0,3.264,3.307,6.309,6.309,0,0,0,2.641-.489l.293,1.223a7.7,7.7,0,0,1-3.167.611c-2.934,0-4.683-1.932-4.683-4.8s1.693-5.135,4.463-5.135c3.112,0,3.937,2.733,3.937,4.481a5.635,5.635,0,0,1-.061.807Zm5.074-1.223c0-1.106-.452-2.818-2.4-2.818-1.754,0-2.519,1.614-2.659,2.818Z" transform="translate(-57.92 -3.309)" fill="#217da7"/>
      <path id="Path_14599" data-name="Path 14599" d="M167.667,4.4V7.133h2.445v1.3h-2.445V13.57c0,1.18.33,1.834,1.3,1.834a4.028,4.028,0,0,0,1-.116l.079,1.3a4.163,4.163,0,0,1-1.534.238,2.409,2.409,0,0,1-1.871-.7,3.548,3.548,0,0,1-.666-2.482V8.435H164.5v-1.3h1.473V4.852Z" transform="translate(-63.937 -1.704)" fill="#217da7"/>
      <path id="Path_14600" data-name="Path 14600" d="M177.207,8.851l1.259,4.842c.275,1.064.532,2.042.709,3.026h.061c.214-.96.532-1.987.844-3.008l1.553-4.891h1.485l1.473,4.762c.355,1.143.611,2.146.844,3.106h.061a28.659,28.659,0,0,1,.727-3.057l1.357-4.781h1.712l-3.057,9.524h-1.571l-1.5-4.554a31.646,31.646,0,0,1-.844-3.124h-.037a28.786,28.786,0,0,1-.868,3.148l-1.534,4.524h-1.571L175.44,8.844Z" transform="translate(-68.189 -3.422)" fill="#217da7"/>
      <path id="Path_14601" data-name="Path 14601" d="M208.744,13.421a4.656,4.656,0,0,1-4.738,5.056c-2.58,0-4.567-1.889-4.567-4.891,0-3.191,2.085-5.056,4.726-5.056C206.9,8.524,208.744,10.511,208.744,13.421Zm-7.55.1c0,2.085,1.223,3.668,2.892,3.668s2.892-1.559,2.892-3.7c0-1.614-.807-3.668-2.855-3.668S201.195,11.709,201.195,13.518Z" transform="translate(-77.517 -3.309)" fill="#217da7"/>
      <path id="Path_14602" data-name="Path 14602" d="M218.183,11.7c0-1.119,0-2.085-.073-2.971h1.51l.061,1.871h.079A2.855,2.855,0,0,1,222.4,8.52a2.048,2.048,0,0,1,.5.055v1.632a2.794,2.794,0,0,0-.611-.055,2.428,2.428,0,0,0-2.323,2.219,5.234,5.234,0,0,0-.079.807v5.08h-1.712Z" transform="translate(-84.774 -3.305)" fill="#217da7"/>
      <path id="Path_14603" data-name="Path 14603" d="M230.6,10.4h.037c.238-.33.568-.746.844-1.076l2.794-3.289h2.085l-3.668,3.919,4.212,5.612h-2.1l-3.319-4.554L230.6,12v3.582H228.89V1.6H230.6Z" transform="translate(-88.964 -0.616)" fill="#217da7"/>
      <path id="Path_14604" data-name="Path 14604" d="M246.316,3.8a1.076,1.076,0,0,1-2.146,0,1.058,1.058,0,0,1,1.082-1.082A1.033,1.033,0,0,1,246.316,3.8ZM244.39,16.028V6.479h1.73V16Z" transform="translate(-94.902 -1.051)" fill="#217da7"/>
      <path id="Path_14605" data-name="Path 14605" d="M252,11.313c0-.984,0-1.791-.073-2.58h1.534l.1,1.577h.037a3.5,3.5,0,0,1,3.148-1.791c1.32,0,3.362.782,3.362,4.053v5.685h-1.73v-5.5c0-1.534-.568-2.812-2.2-2.812a2.445,2.445,0,0,0-2.323,1.767,2.5,2.5,0,0,0-.116.807v5.728H252Z" transform="translate(-97.919 -3.305)" fill="#217da7"/>
      <path id="Path_14606" data-name="Path 14606" d="M277.671,8.73c-.037.691-.08,1.455-.08,2.616v5.5c0,2.189-.428,3.521-1.357,4.353a5.055,5.055,0,0,1-3.46,1.137,6.113,6.113,0,0,1-3.167-.789l.434-1.314a5.392,5.392,0,0,0,2.794.8c1.767,0,3.057-.923,3.057-3.326V16.622h-.043a3.405,3.405,0,0,1-3.026,1.589c-2.36,0-4.053-2.005-4.053-4.64,0-3.228,2.1-5.056,4.279-5.056a3.154,3.154,0,0,1,2.971,1.651h.043l.079-1.437Zm-1.791,3.747a2.45,2.45,0,0,0-.1-.789,2.482,2.482,0,0,0-2.415-1.834c-1.657,0-2.837,1.394-2.837,3.6,0,1.865.948,3.423,2.812,3.423a2.537,2.537,0,0,0,2.4-1.773,3.017,3.017,0,0,0,.134-.923Z" transform="translate(-104.464 -3.302)" fill="#217da7"/>
      <path id="Path_14607" data-name="Path 14607" d="M130.578,45.574,129.2,49.744H127.43l4.505-13.254H134l4.524,13.254h-1.834l-1.412-4.169Zm4.347-1.339-1.3-3.815c-.293-.862-.489-1.651-.685-2.445H132.9c-.2.789-.41,1.6-.666,2.4l-1.3,3.833Z" transform="translate(-49.529 -14.177)" fill="#217da7"/>
      <path id="Path_14608" data-name="Path 14608" d="M154.627,51.626a6.431,6.431,0,0,1-2.733.55,4.535,4.535,0,0,1-4.744-4.891,4.836,4.836,0,0,1,5.117-5.056,5.893,5.893,0,0,1,2.4.489l-.4,1.339a3.98,3.98,0,0,0-2.005-.452,3.3,3.3,0,0,0-3.362,3.6,3.261,3.261,0,0,0,3.3,3.558,4.891,4.891,0,0,0,2.127-.471Z" transform="translate(-57.193 -16.407)" fill="#217da7"/>
      <path id="Path_14609" data-name="Path 14609" d="M167.491,51.966l-.134-1.223H167.3a3.552,3.552,0,0,1-2.91,1.418,2.714,2.714,0,0,1-2.916-2.733c0-2.3,2.048-3.564,5.728-3.546v-.2a1.962,1.962,0,0,0-2.164-2.2,4.75,4.75,0,0,0-2.482.709l-.391-1.143a5.893,5.893,0,0,1,3.13-.844c2.91,0,3.619,1.987,3.619,3.894v3.558a13.61,13.61,0,0,0,.153,2.28Zm-.257-4.854c-1.889-.043-4.035.293-4.035,2.14a1.534,1.534,0,0,0,1.651,1.657,2.372,2.372,0,0,0,2.3-1.6,1.744,1.744,0,0,0,.1-.55Z" transform="translate(-62.759 -16.399)" fill="#217da7"/>
      <path id="Path_14610" data-name="Path 14610" d="M185.993,35.322V46.827a22.787,22.787,0,0,0,.079,2.445h-1.559l-.079-1.651H184.4a3.521,3.521,0,0,1-3.246,1.871c-2.3,0-4.071-1.95-4.071-4.842,0-3.167,1.95-5.111,4.279-5.111A3.179,3.179,0,0,1,184.233,41h.043V35.31Zm-1.73,8.32a3.279,3.279,0,0,0-.079-.727,2.549,2.549,0,0,0-2.5-2.005c-1.791,0-2.855,1.571-2.855,3.668,0,1.932.948,3.521,2.818,3.521a2.6,2.6,0,0,0,2.537-2.06,3.267,3.267,0,0,0,.079-.752Z" transform="translate(-68.826 -13.718)" fill="#217da7"/>
      <path id="Path_14611" data-name="Path 14611" d="M196.881,47.538a3.053,3.053,0,0,0,3.264,3.307,6.3,6.3,0,0,0,2.641-.5l.293,1.223a7.7,7.7,0,0,1-3.167.611c-2.934,0-4.683-1.932-4.683-4.805s1.693-5.129,4.463-5.129c3.112,0,3.937,2.733,3.937,4.481a5.646,5.646,0,0,1-.061.807Zm5.074-1.223c0-1.1-.452-2.812-2.4-2.812-1.755,0-2.519,1.614-2.659,2.812Z" transform="translate(-75.881 -16.415)" fill="#217da7"/>
      <path id="Path_14612" data-name="Path 14612" d="M212.429,45.043c0-.984,0-1.791-.079-2.58h1.516L213.939,44H214a3.283,3.283,0,0,1,2.989-1.748,2.812,2.812,0,0,1,2.7,1.907h.043a3.9,3.9,0,0,1,1.058-1.223,3.258,3.258,0,0,1,2.109-.666c1.253,0,3.124.825,3.124,4.126V52h-1.693V46.6c0-1.834-.666-2.934-2.06-2.934a2.237,2.237,0,0,0-2.048,1.577,2.793,2.793,0,0,0-.141.862v5.881H218.39v-5.7c0-1.51-.672-2.616-1.987-2.616a2.372,2.372,0,0,0-2.146,1.73,2.444,2.444,0,0,0-.141.85v5.74h-1.687Z" transform="translate(-82.535 -16.415)" fill="#217da7"/>
      <path id="Path_14613" data-name="Path 14613" d="M238.729,42.6l2.085,5.624c.214.611.452,1.382.611,1.95h.043c.177-.569.373-1.3.611-1.987l1.889-5.588H245.8l-2.6,6.786c-1.223,3.264-2.085,4.94-3.264,5.96a4.689,4.689,0,0,1-2.127,1.125l-.428-1.455a4.622,4.622,0,0,0,1.51-.85,5.147,5.147,0,0,0,1.455-1.926,1.26,1.26,0,0,0,.141-.416,1.491,1.491,0,0,0-.116-.452L236.84,42.6Z" transform="translate(-92.054 -16.551)" fill="#217da7"/>
    </g>
  </g>
</svg>
